<svg id="Layer_1" data-name="Layer 1" xmlns="http://www.w3.org/2000/svg" viewBox="0 0 149.6 185.97"><defs><style>.cls-1{fill:none;}.cls-2,.cls-4{fill:#00a99d;}.cls-3{fill:#20baae;}.cls-4{font-size:18px;font-family:Impact;}.cls-5{fill:#000;}</style></defs><polygon class="cls-1" points="92.6 56.95 92.6 57 130.04 57 130.03 19.57 129.98 19.57 92.6 19.56 92.6 56.95"/><polygon class="cls-1" points="19.57 62.22 19.57 129.98 19.57 130.03 87.39 130.03 87.39 115.69 33.91 115.69 33.91 115.64 33.91 62.22 19.57 62.22"/><polygon class="cls-2" points="19.57 62.22 33.91 62.22 33.91 115.64 53.48 96.07 53.47 42.65 0 42.65 0 149.55 19.57 129.98 19.57 62.22"/><polygon class="cls-3" points="106.95 96.13 53.48 96.13 53.48 96.07 33.91 115.64 33.91 115.69 87.39 115.69 87.39 130.03 19.57 130.03 19.57 129.98 0 149.55 0 149.6 106.95 149.6 106.95 96.13"/><polygon class="cls-3" points="129.98 19.57 130.03 19.57 130.04 57 92.6 57 92.6 56.95 73.04 76.51 73.04 76.56 149.6 76.56 149.6 0 149.55 0 129.98 19.57"/><polygon class="cls-2" points="92.6 19.56 129.98 19.57 149.55 0 73.04 0 73.04 76.51 92.6 56.95 92.6 19.56"/><text class="cls-4" transform="translate(0 180.02)">LEADS<tspan class="cls-5" x="42.72" y="0"> </tspan><tspan class="cls-3" x="45.9" y="0">EMPRESARIAIS</tspan></text></svg>